<?xml version="1.0" encoding="UTF-8" standalone="yes"?>
<svg fill="none" stroke-linecap="square" stroke-miterlimit="10" version="1.1" viewBox="0.0 0.0 902.0 582.0" xmlns="http://www.w3.org/2000/svg">
 <clipPath id="a">
  <path d="m0 0h902v582h-902v-582z"/>
 </clipPath>
 <g clip-path="url(#a)">
  <path d="m0 0h902v582h-902z" fill="#000" fill-opacity="0"/>
  <path d="m-56.668 572.65c0-29.554 24.987-53.512 55.811-53.512 14.802 0 28.998 5.6378 39.464 15.673 10.467 10.035 16.347 23.646 16.347 37.839 0 29.554-24.987 53.512-55.811 53.512s-55.811-23.958-55.811-53.512z" fill="#fff1db"/>
  <path d="m-56.668 572.65c0-29.554 24.987-53.512 55.811-53.512 14.802 0 28.998 5.6378 39.464 15.673 10.467 10.035 16.347 23.646 16.347 37.839 0 29.554-24.987 53.512-55.811 53.512s-55.811-23.958-55.811-53.512z" stroke="#fff" stroke-linecap="butt" stroke-linejoin="round" stroke-width="8"/>
  <path d="m54.954 572.65c0-29.554 24.987-53.512 55.811-53.512 14.802 0 28.998 5.6378 39.464 15.673 10.467 10.035 16.347 23.646 16.347 37.839 0 29.554-24.987 53.512-55.811 53.512s-55.811-23.958-55.811-53.512z" fill="#fff1db"/>
  <path d="m54.954 572.65c0-29.554 24.987-53.512 55.811-53.512 14.802 0 28.998 5.6378 39.464 15.673 10.467 10.035 16.347 23.646 16.347 37.839 0 29.554-24.987 53.512-55.811 53.512s-55.811-23.958-55.811-53.512z" stroke="#fff" stroke-linecap="butt" stroke-linejoin="round" stroke-width="8"/>
  <path d="m166.58 572.65c0-29.554 24.987-53.512 55.811-53.512 14.802 0 28.998 5.6378 39.464 15.673 10.467 10.035 16.347 23.646 16.347 37.839 0 29.554-24.987 53.512-55.811 53.512s-55.811-23.958-55.811-53.512z" fill="#fff1db"/>
  <path d="m166.58 572.65c0-29.554 24.987-53.512 55.811-53.512 14.802 0 28.998 5.6378 39.464 15.673 10.467 10.035 16.347 23.646 16.347 37.839 0 29.554-24.987 53.512-55.811 53.512s-55.811-23.958-55.811-53.512z" stroke="#fff" stroke-linecap="butt" stroke-linejoin="round" stroke-width="8"/>
  <path d="m278.2 567.63c0-29.554 24.987-53.512 55.811-53.512 14.802 0 28.998 5.6378 39.464 15.673 10.467 10.035 16.347 23.646 16.347 37.839 0 29.554-24.987 53.512-55.811 53.512s-55.811-23.958-55.811-53.512z" fill="#fff1db"/>
  <path d="m278.2 567.63c0-29.554 24.987-53.512 55.811-53.512 14.802 0 28.998 5.6378 39.464 15.673 10.467 10.035 16.347 23.646 16.347 37.839 0 29.554-24.987 53.512-55.811 53.512s-55.811-23.958-55.811-53.512z" stroke="#fff" stroke-linecap="butt" stroke-linejoin="round" stroke-width="8"/>
  <path d="m389.82 567.63c0-29.554 24.987-53.512 55.811-53.512 14.802 0 28.998 5.6378 39.464 15.673 10.467 10.035 16.347 23.646 16.347 37.839 0 29.554-24.987 53.512-55.811 53.512s-55.811-23.958-55.811-53.512z" fill="#fff1db"/>
  <path d="m389.82 567.63c0-29.554 24.987-53.512 55.811-53.512 14.802 0 28.998 5.6378 39.464 15.673 10.467 10.035 16.347 23.646 16.347 37.839 0 29.554-24.987 53.512-55.811 53.512s-55.811-23.958-55.811-53.512z" stroke="#fff" stroke-linecap="butt" stroke-linejoin="round" stroke-width="8"/>
  <path d="m501.44 567.63c0-29.554 24.987-53.512 55.811-53.512 14.802 0 28.998 5.6378 39.464 15.673 10.467 10.035 16.347 23.646 16.347 37.839 0 29.554-24.987 53.512-55.811 53.512s-55.811-23.958-55.811-53.512z" fill="#fff1db"/>
  <path d="m501.44 567.63c0-29.554 24.987-53.512 55.811-53.512 14.802 0 28.998 5.6378 39.464 15.673 10.467 10.035 16.347 23.646 16.347 37.839 0 29.554-24.987 53.512-55.811 53.512s-55.811-23.958-55.811-53.512z" stroke="#fff" stroke-linecap="butt" stroke-linejoin="round" stroke-width="8"/>
  <path d="m724.69 567.63c0-29.554 24.987-53.512 55.811-53.512 14.802 0 28.998 5.6378 39.464 15.673 10.467 10.035 16.347 23.646 16.347 37.839 0 29.554-24.987 53.512-55.811 53.512s-55.811-23.958-55.811-53.512z" fill="#fff1db"/>
  <path d="m724.69 567.63c0-29.554 24.987-53.512 55.811-53.512 14.802 0 28.998 5.6378 39.464 15.673 10.467 10.035 16.347 23.646 16.347 37.839 0 29.554-24.987 53.512-55.811 53.512s-55.811-23.958-55.811-53.512z" stroke="#fff" stroke-linecap="butt" stroke-linejoin="round" stroke-width="8"/>
  <path d="m836.31 567.63c0-29.554 24.987-53.512 55.811-53.512 14.802 0 28.998 5.6378 39.464 15.673 10.467 10.035 16.347 23.646 16.347 37.839 0 29.554-24.987 53.512-55.811 53.512s-55.811-23.958-55.811-53.512z" fill="#fff1db"/>
  <path d="m836.31 567.63c0-29.554 24.987-53.512 55.811-53.512 14.802 0 28.998 5.6378 39.464 15.673 10.467 10.035 16.347 23.646 16.347 37.839 0 29.554-24.987 53.512-55.811 53.512s-55.811-23.958-55.811-53.512z" stroke="#fff" stroke-linecap="butt" stroke-linejoin="round" stroke-width="8"/>
  <path d="m613.06 567.63c0-29.554 24.987-53.512 55.811-53.512 14.802 0 28.998 5.6378 39.464 15.673 10.467 10.035 16.347 23.646 16.347 37.839 0 29.554-24.987 53.512-55.811 53.512s-55.811-23.958-55.811-53.512z" fill="#fff1db"/>
  <path d="m613.06 567.63c0-29.554 24.987-53.512 55.811-53.512 14.802 0 28.998 5.6378 39.464 15.673 10.467 10.035 16.347 23.646 16.347 37.839 0 29.554-24.987 53.512-55.811 53.512s-55.811-23.958-55.811-53.512z" stroke="#fff" stroke-linecap="butt" stroke-linejoin="round" stroke-width="8"/>
  <path d="m-6.3504 517.07c0-29.554 24.987-53.512 55.811-53.512 14.802 0 28.998 5.6378 39.464 15.673 10.467 10.035 16.347 23.646 16.347 37.839 0 29.554-24.987 53.512-55.811 53.512s-55.811-23.958-55.811-53.512z" fill="#ffe9cc"/>
  <path d="m-6.3504 517.07c0-29.554 24.987-53.512 55.811-53.512 14.802 0 28.998 5.6378 39.464 15.673 10.467 10.035 16.347 23.646 16.347 37.839 0 29.554-24.987 53.512-55.811 53.512s-55.811-23.958-55.811-53.512z" stroke="#fff" stroke-linecap="butt" stroke-linejoin="round" stroke-width="8"/>
  <path d="m105.27 517.07c0-29.554 24.987-53.512 55.811-53.512 14.802 0 28.998 5.6378 39.464 15.673 10.467 10.035 16.347 23.646 16.347 37.839 0 29.554-24.987 53.512-55.811 53.512s-55.811-23.958-55.811-53.512z" fill="#ffe9cc"/>
  <path d="m105.27 517.07c0-29.554 24.987-53.512 55.811-53.512 14.802 0 28.998 5.6378 39.464 15.673 10.467 10.035 16.347 23.646 16.347 37.839 0 29.554-24.987 53.512-55.811 53.512s-55.811-23.958-55.811-53.512z" stroke="#fff" stroke-linecap="butt" stroke-linejoin="round" stroke-width="8"/>
  <path d="m216.89 517.07c0-29.554 24.987-53.512 55.811-53.512 14.802 0 28.998 5.6378 39.464 15.673 10.467 10.035 16.347 23.646 16.347 37.839 0 29.554-24.987 53.512-55.811 53.512s-55.811-23.958-55.811-53.512z" fill="#ffe9cc"/>
  <path d="m216.89 517.07c0-29.554 24.987-53.512 55.811-53.512 14.802 0 28.998 5.6378 39.464 15.673 10.467 10.035 16.347 23.646 16.347 37.839 0 29.554-24.987 53.512-55.811 53.512s-55.811-23.958-55.811-53.512z" stroke="#fff" stroke-linecap="butt" stroke-linejoin="round" stroke-width="8"/>
  <path d="m328.52 512.05c0-29.554 24.987-53.512 55.811-53.512 14.802 0 28.998 5.6378 39.464 15.673 10.467 10.035 16.347 23.646 16.347 37.839 0 29.554-24.987 53.512-55.811 53.512s-55.811-23.958-55.811-53.512z" fill="#ffe9cc"/>
  <path d="m328.52 512.05c0-29.554 24.987-53.512 55.811-53.512 14.802 0 28.998 5.6378 39.464 15.673 10.467 10.035 16.347 23.646 16.347 37.839 0 29.554-24.987 53.512-55.811 53.512s-55.811-23.958-55.811-53.512z" stroke="#fff" stroke-linecap="butt" stroke-linejoin="round" stroke-width="8"/>
  <path d="m440.14 512.05c0-29.554 24.987-53.512 55.811-53.512 14.802 0 28.998 5.6378 39.464 15.673 10.467 10.035 16.347 23.646 16.347 37.839 0 29.554-24.987 53.512-55.811 53.512s-55.811-23.958-55.811-53.512z" fill="#ffe9cc"/>
  <path d="m440.14 512.05c0-29.554 24.987-53.512 55.811-53.512 14.802 0 28.998 5.6378 39.464 15.673 10.467 10.035 16.347 23.646 16.347 37.839 0 29.554-24.987 53.512-55.811 53.512s-55.811-23.958-55.811-53.512z" stroke="#fff" stroke-linecap="butt" stroke-linejoin="round" stroke-width="8"/>
  <path d="m551.76 512.05c0-29.554 24.987-53.512 55.811-53.512 14.802 0 28.998 5.6378 39.464 15.673 10.467 10.035 16.347 23.646 16.347 37.839 0 29.554-24.987 53.512-55.811 53.512s-55.811-23.958-55.811-53.512z" fill="#ffe9cc"/>
  <path d="m551.76 512.05c0-29.554 24.987-53.512 55.811-53.512 14.802 0 28.998 5.6378 39.464 15.673 10.467 10.035 16.347 23.646 16.347 37.839 0 29.554-24.987 53.512-55.811 53.512s-55.811-23.958-55.811-53.512z" stroke="#fff" stroke-linecap="butt" stroke-linejoin="round" stroke-width="8"/>
  <path d="m775 512.05c0-29.554 24.987-53.512 55.811-53.512 14.802 0 28.998 5.6378 39.464 15.673 10.467 10.035 16.347 23.646 16.347 37.839 0 29.554-24.987 53.512-55.811 53.512s-55.811-23.958-55.811-53.512z" fill="#ffe9cc"/>
  <path d="m775 512.05c0-29.554 24.987-53.512 55.811-53.512 14.802 0 28.998 5.6378 39.464 15.673 10.467 10.035 16.347 23.646 16.347 37.839 0 29.554-24.987 53.512-55.811 53.512s-55.811-23.958-55.811-53.512z" stroke="#fff" stroke-linecap="butt" stroke-linejoin="round" stroke-width="8"/>
  <path d="m886.63 512.05c0-29.554 24.987-53.512 55.811-53.512 14.802 0 28.998 5.6378 39.464 15.673 10.467 10.035 16.347 23.646 16.347 37.839 0 29.554-24.987 53.512-55.811 53.512s-55.811-23.958-55.811-53.512z" fill="#ffe9cc"/>
  <path d="m886.63 512.05c0-29.554 24.987-53.512 55.811-53.512 14.802 0 28.998 5.6378 39.464 15.673 10.467 10.035 16.347 23.646 16.347 37.839 0 29.554-24.987 53.512-55.811 53.512s-55.811-23.958-55.811-53.512z" stroke="#fff" stroke-linecap="butt" stroke-linejoin="round" stroke-width="8"/>
  <path d="m663.38 512.05c0-29.554 24.987-53.512 55.811-53.512 14.802 0 28.998 5.6378 39.464 15.673 10.467 10.035 16.347 23.646 16.347 37.839 0 29.554-24.987 53.512-55.811 53.512s-55.811-23.958-55.811-53.512z" fill="#ffe9cc"/>
  <path d="m663.38 512.05c0-29.554 24.987-53.512 55.811-53.512 14.802 0 28.998 5.6378 39.464 15.673 10.467 10.035 16.347 23.646 16.347 37.839 0 29.554-24.987 53.512-55.811 53.512s-55.811-23.958-55.811-53.512z" stroke="#fff" stroke-linecap="butt" stroke-linejoin="round" stroke-width="8"/>
  <path d="m-66.009 463.54c0-29.554 24.987-53.512 55.811-53.512 14.802 0 28.998 5.6378 39.464 15.673 10.467 10.035 16.347 23.646 16.347 37.839 0 29.554-24.987 53.512-55.811 53.512s-55.811-23.958-55.811-53.512z" fill="#ffe1ba"/>
  <path d="m-66.009 463.54c0-29.554 24.987-53.512 55.811-53.512 14.802 0 28.998 5.6378 39.464 15.673 10.467 10.035 16.347 23.646 16.347 37.839 0 29.554-24.987 53.512-55.811 53.512s-55.811-23.958-55.811-53.512z" stroke="#fff" stroke-linecap="butt" stroke-linejoin="round" stroke-width="8"/>
  <path d="m45.613 463.54c0-29.554 24.987-53.512 55.811-53.512 14.802 0 28.998 5.6378 39.464 15.673 10.467 10.035 16.347 23.646 16.347 37.839 0 29.554-24.987 53.512-55.811 53.512s-55.811-23.958-55.811-53.512z" fill="#ffe1ba"/>
  <path d="m45.613 463.54c0-29.554 24.987-53.512 55.811-53.512 14.802 0 28.998 5.6378 39.464 15.673 10.467 10.035 16.347 23.646 16.347 37.839 0 29.554-24.987 53.512-55.811 53.512s-55.811-23.958-55.811-53.512z" stroke="#fff" stroke-linecap="butt" stroke-linejoin="round" stroke-width="8"/>
  <path d="m157.23 463.54c0-29.554 24.987-53.512 55.811-53.512 14.802 0 28.998 5.6378 39.464 15.673 10.467 10.035 16.347 23.646 16.347 37.839 0 29.554-24.987 53.512-55.811 53.512s-55.811-23.958-55.811-53.512z" fill="#ffe1ba"/>
  <path d="m157.23 463.54c0-29.554 24.987-53.512 55.811-53.512 14.802 0 28.998 5.6378 39.464 15.673 10.467 10.035 16.347 23.646 16.347 37.839 0 29.554-24.987 53.512-55.811 53.512s-55.811-23.958-55.811-53.512z" stroke="#fff" stroke-linecap="butt" stroke-linejoin="round" stroke-width="8"/>
  <path d="m268.86 458.52c0-29.554 24.987-53.512 55.811-53.512 14.802 0 28.998 5.6378 39.464 15.673 10.467 10.035 16.347 23.646 16.347 37.839 0 29.554-24.987 53.512-55.811 53.512s-55.811-23.958-55.811-53.512z" fill="#ffe1ba"/>
  <path d="m268.86 458.52c0-29.554 24.987-53.512 55.811-53.512 14.802 0 28.998 5.6378 39.464 15.673 10.467 10.035 16.347 23.646 16.347 37.839 0 29.554-24.987 53.512-55.811 53.512s-55.811-23.958-55.811-53.512z" stroke="#fff" stroke-linecap="butt" stroke-linejoin="round" stroke-width="8"/>
  <path d="m380.48 458.52c0-29.554 24.987-53.512 55.811-53.512 14.802 0 28.998 5.6378 39.464 15.673 10.467 10.035 16.347 23.646 16.347 37.839 0 29.554-24.987 53.512-55.811 53.512s-55.811-23.958-55.811-53.512z" fill="#ffe1ba"/>
  <path d="m380.48 458.52c0-29.554 24.987-53.512 55.811-53.512 14.802 0 28.998 5.6378 39.464 15.673 10.467 10.035 16.347 23.646 16.347 37.839 0 29.554-24.987 53.512-55.811 53.512s-55.811-23.958-55.811-53.512z" stroke="#fff" stroke-linecap="butt" stroke-linejoin="round" stroke-width="8"/>
  <path d="m492.1 458.52c0-29.554 24.987-53.512 55.811-53.512 14.802 0 28.998 5.6378 39.464 15.673 10.467 10.035 16.347 23.646 16.347 37.839 0 29.554-24.987 53.512-55.811 53.512s-55.811-23.958-55.811-53.512z" fill="#ffe1ba"/>
  <path d="m492.1 458.52c0-29.554 24.987-53.512 55.811-53.512 14.802 0 28.998 5.6378 39.464 15.673 10.467 10.035 16.347 23.646 16.347 37.839 0 29.554-24.987 53.512-55.811 53.512s-55.811-23.958-55.811-53.512z" stroke="#fff" stroke-linecap="butt" stroke-linejoin="round" stroke-width="8"/>
  <path d="m715.35 458.52c0-29.554 24.987-53.512 55.811-53.512 14.802 0 28.998 5.6378 39.464 15.673 10.467 10.035 16.347 23.646 16.347 37.839 0 29.554-24.987 53.512-55.811 53.512s-55.811-23.958-55.811-53.512z" fill="#ffe1ba"/>
  <path d="m715.35 458.52c0-29.554 24.987-53.512 55.811-53.512 14.802 0 28.998 5.6378 39.464 15.673 10.467 10.035 16.347 23.646 16.347 37.839 0 29.554-24.987 53.512-55.811 53.512s-55.811-23.958-55.811-53.512z" stroke="#fff" stroke-linecap="butt" stroke-linejoin="round" stroke-width="8"/>
  <path d="m826.97 458.52c0-29.554 24.987-53.512 55.811-53.512 14.802 0 28.998 5.6378 39.464 15.673 10.467 10.035 16.347 23.646 16.347 37.839 0 29.554-24.987 53.512-55.811 53.512s-55.811-23.958-55.811-53.512z" fill="#ffe1ba"/>
  <path d="m826.97 458.52c0-29.554 24.987-53.512 55.811-53.512 14.802 0 28.998 5.6378 39.464 15.673 10.467 10.035 16.347 23.646 16.347 37.839 0 29.554-24.987 53.512-55.811 53.512s-55.811-23.958-55.811-53.512z" stroke="#fff" stroke-linecap="butt" stroke-linejoin="round" stroke-width="8"/>
  <path d="m603.72 458.52c0-29.554 24.987-53.512 55.811-53.512 14.802 0 28.998 5.6378 39.464 15.673 10.467 10.035 16.347 23.646 16.347 37.839 0 29.554-24.987 53.512-55.811 53.512s-55.811-23.958-55.811-53.512z" fill="#ffe1ba"/>
  <path d="m603.72 458.52c0-29.554 24.987-53.512 55.811-53.512 14.802 0 28.998 5.6378 39.464 15.673 10.467 10.035 16.347 23.646 16.347 37.839 0 29.554-24.987 53.512-55.811 53.512s-55.811-23.958-55.811-53.512z" stroke="#fff" stroke-linecap="butt" stroke-linejoin="round" stroke-width="8"/>
  <path d="m-14.563 409.8c0-29.554 24.987-53.512 55.811-53.512 14.802 0 28.998 5.6378 39.464 15.673 10.467 10.035 16.347 23.646 16.347 37.839 0 29.554-24.987 53.512-55.811 53.512s-55.811-23.958-55.811-53.512z" fill="#ffd9ae"/>
  <path d="m-14.563 409.8c0-29.554 24.987-53.512 55.811-53.512 14.802 0 28.998 5.6378 39.464 15.673 10.467 10.035 16.347 23.646 16.347 37.839 0 29.554-24.987 53.512-55.811 53.512s-55.811-23.958-55.811-53.512z" stroke="#fff" stroke-linecap="butt" stroke-linejoin="round" stroke-width="8"/>
  <path d="m97.059 409.8c0-29.554 24.987-53.512 55.811-53.512 14.802 0 28.998 5.6378 39.464 15.673 10.467 10.035 16.347 23.646 16.347 37.839 0 29.554-24.987 53.512-55.811 53.512s-55.811-23.958-55.811-53.512z" fill="#ffd9ae"/>
  <path d="m97.059 409.8c0-29.554 24.987-53.512 55.811-53.512 14.802 0 28.998 5.6378 39.464 15.673 10.467 10.035 16.347 23.646 16.347 37.839 0 29.554-24.987 53.512-55.811 53.512s-55.811-23.958-55.811-53.512z" stroke="#fff" stroke-linecap="butt" stroke-linejoin="round" stroke-width="8"/>
  <path d="m208.68 409.8c0-29.554 24.987-53.512 55.811-53.512 14.802 0 28.998 5.6378 39.464 15.673 10.467 10.035 16.347 23.646 16.347 37.839 0 29.554-24.987 53.512-55.811 53.512s-55.811-23.958-55.811-53.512z" fill="#ffd9ae"/>
  <path d="m208.68 409.8c0-29.554 24.987-53.512 55.811-53.512 14.802 0 28.998 5.6378 39.464 15.673 10.467 10.035 16.347 23.646 16.347 37.839 0 29.554-24.987 53.512-55.811 53.512s-55.811-23.958-55.811-53.512z" stroke="#fff" stroke-linecap="butt" stroke-linejoin="round" stroke-width="8"/>
  <path d="m320.3 404.78c0-29.554 24.987-53.512 55.811-53.512 14.802 0 28.998 5.6378 39.464 15.673 10.467 10.035 16.347 23.646 16.347 37.839 0 29.554-24.987 53.512-55.811 53.512s-55.811-23.958-55.811-53.512z" fill="#ffd9ae"/>
  <path d="m320.3 404.78c0-29.554 24.987-53.512 55.811-53.512 14.802 0 28.998 5.6378 39.464 15.673 10.467 10.035 16.347 23.646 16.347 37.839 0 29.554-24.987 53.512-55.811 53.512s-55.811-23.958-55.811-53.512z" stroke="#fff" stroke-linecap="butt" stroke-linejoin="round" stroke-width="8"/>
  <path d="m431.93 404.78c0-29.554 24.987-53.512 55.811-53.512 14.802 0 28.998 5.6378 39.464 15.673 10.467 10.035 16.347 23.646 16.347 37.839 0 29.554-24.987 53.512-55.811 53.512s-55.811-23.958-55.811-53.512z" fill="#ffd9ae"/>
  <path d="m431.93 404.78c0-29.554 24.987-53.512 55.811-53.512 14.802 0 28.998 5.6378 39.464 15.673 10.467 10.035 16.347 23.646 16.347 37.839 0 29.554-24.987 53.512-55.811 53.512s-55.811-23.958-55.811-53.512z" stroke="#fff" stroke-linecap="butt" stroke-linejoin="round" stroke-width="8"/>
  <path d="m543.55 404.78c0-29.554 24.987-53.512 55.811-53.512 14.802 0 28.998 5.6378 39.464 15.673 10.467 10.035 16.347 23.646 16.347 37.839 0 29.554-24.987 53.512-55.811 53.512s-55.811-23.958-55.811-53.512z" fill="#ffd9ae"/>
  <path d="m543.55 404.78c0-29.554 24.987-53.512 55.811-53.512 14.802 0 28.998 5.6378 39.464 15.673 10.467 10.035 16.347 23.646 16.347 37.839 0 29.554-24.987 53.512-55.811 53.512s-55.811-23.958-55.811-53.512z" stroke="#fff" stroke-linecap="butt" stroke-linejoin="round" stroke-width="8"/>
  <path d="m766.79 404.78c0-29.554 24.987-53.512 55.811-53.512 14.802 0 28.998 5.6378 39.464 15.673 10.467 10.035 16.347 23.646 16.347 37.839 0 29.554-24.987 53.512-55.811 53.512s-55.811-23.958-55.811-53.512z" fill="#ffd9ae"/>
  <path d="m766.79 404.78c0-29.554 24.987-53.512 55.811-53.512 14.802 0 28.998 5.6378 39.464 15.673 10.467 10.035 16.347 23.646 16.347 37.839 0 29.554-24.987 53.512-55.811 53.512s-55.811-23.958-55.811-53.512z" stroke="#fff" stroke-linecap="butt" stroke-linejoin="round" stroke-width="8"/>
  <path d="m878.41 404.78c0-29.554 24.987-53.512 55.811-53.512 14.802 0 28.998 5.6378 39.464 15.673 10.467 10.035 16.347 23.646 16.347 37.839 0 29.554-24.987 53.512-55.811 53.512s-55.811-23.958-55.811-53.512z" fill="#ffd9ae"/>
  <path d="m878.41 404.78c0-29.554 24.987-53.512 55.811-53.512 14.802 0 28.998 5.6378 39.464 15.673 10.467 10.035 16.347 23.646 16.347 37.839 0 29.554-24.987 53.512-55.811 53.512s-55.811-23.958-55.811-53.512z" stroke="#fff" stroke-linecap="butt" stroke-linejoin="round" stroke-width="8"/>
  <path d="m655.17 404.78c0-29.554 24.987-53.512 55.811-53.512 14.802 0 28.998 5.6378 39.464 15.673 10.467 10.035 16.347 23.646 16.347 37.839 0 29.554-24.987 53.512-55.811 53.512s-55.811-23.958-55.811-53.512z" fill="#ffd9ae"/>
  <path d="m655.17 404.78c0-29.554 24.987-53.512 55.811-53.512 14.802 0 28.998 5.6378 39.464 15.673 10.467 10.035 16.347 23.646 16.347 37.839 0 29.554-24.987 53.512-55.811 53.512s-55.811-23.958-55.811-53.512z" stroke="#fff" stroke-linecap="butt" stroke-linejoin="round" stroke-width="8"/>
  <path d="m-70.584 352.16c0-29.554 24.987-53.512 55.811-53.512 14.802 0 28.998 5.6378 39.464 15.673 10.467 10.035 16.347 23.646 16.347 37.839 0 29.554-24.987 53.512-55.811 53.512s-55.811-23.958-55.811-53.512z" fill="#ffca99"/>
  <path d="m-70.584 352.16c0-29.554 24.987-53.512 55.811-53.512 14.802 0 28.998 5.6378 39.464 15.673 10.467 10.035 16.347 23.646 16.347 37.839 0 29.554-24.987 53.512-55.811 53.512s-55.811-23.958-55.811-53.512z" stroke="#fff" stroke-linecap="butt" stroke-linejoin="round" stroke-width="8"/>
  <path d="m41.038 352.16c0-29.554 24.987-53.512 55.811-53.512 14.802 0 28.998 5.6378 39.464 15.673 10.467 10.035 16.347 23.646 16.347 37.839 0 29.554-24.987 53.512-55.811 53.512s-55.811-23.958-55.811-53.512z" fill="#ffca99"/>
  <path d="m41.038 352.16c0-29.554 24.987-53.512 55.811-53.512 14.802 0 28.998 5.6378 39.464 15.673 10.467 10.035 16.347 23.646 16.347 37.839 0 29.554-24.987 53.512-55.811 53.512s-55.811-23.958-55.811-53.512z" stroke="#fff" stroke-linecap="butt" stroke-linejoin="round" stroke-width="8"/>
  <path d="m152.66 352.16c0-29.554 24.987-53.512 55.811-53.512 14.802 0 28.998 5.6378 39.464 15.673 10.467 10.035 16.347 23.646 16.347 37.839 0 29.554-24.987 53.512-55.811 53.512s-55.811-23.958-55.811-53.512z" fill="#ffca99"/>
  <path d="m152.66 352.16c0-29.554 24.987-53.512 55.811-53.512 14.802 0 28.998 5.6378 39.464 15.673 10.467 10.035 16.347 23.646 16.347 37.839 0 29.554-24.987 53.512-55.811 53.512s-55.811-23.958-55.811-53.512z" stroke="#fff" stroke-linecap="butt" stroke-linejoin="round" stroke-width="8"/>
  <path d="m264.28 347.14c0-29.554 24.987-53.512 55.811-53.512 14.802 0 28.998 5.6378 39.464 15.673 10.467 10.035 16.347 23.646 16.347 37.839 0 29.554-24.987 53.512-55.811 53.512s-55.811-23.958-55.811-53.512z" fill="#ffca99"/>
  <path d="m264.28 347.14c0-29.554 24.987-53.512 55.811-53.512 14.802 0 28.998 5.6378 39.464 15.673 10.467 10.035 16.347 23.646 16.347 37.839 0 29.554-24.987 53.512-55.811 53.512s-55.811-23.958-55.811-53.512z" stroke="#fff" stroke-linecap="butt" stroke-linejoin="round" stroke-width="8"/>
  <path d="m375.9 347.14c0-29.554 24.987-53.512 55.811-53.512 14.802 0 28.998 5.6378 39.464 15.673 10.467 10.035 16.347 23.646 16.347 37.839 0 29.554-24.987 53.512-55.811 53.512s-55.811-23.958-55.811-53.512z" fill="#ffca99"/>
  <path d="m375.9 347.14c0-29.554 24.987-53.512 55.811-53.512 14.802 0 28.998 5.6378 39.464 15.673 10.467 10.035 16.347 23.646 16.347 37.839 0 29.554-24.987 53.512-55.811 53.512s-55.811-23.958-55.811-53.512z" stroke="#fff" stroke-linecap="butt" stroke-linejoin="round" stroke-width="8"/>
  <path d="m487.53 347.14c0-29.554 24.987-53.512 55.811-53.512 14.802 0 28.998 5.6378 39.464 15.673 10.467 10.035 16.347 23.646 16.347 37.839 0 29.554-24.987 53.512-55.811 53.512s-55.811-23.958-55.811-53.512z" fill="#ffca99"/>
  <path d="m487.53 347.14c0-29.554 24.987-53.512 55.811-53.512 14.802 0 28.998 5.6378 39.464 15.673 10.467 10.035 16.347 23.646 16.347 37.839 0 29.554-24.987 53.512-55.811 53.512s-55.811-23.958-55.811-53.512z" stroke="#fff" stroke-linecap="butt" stroke-linejoin="round" stroke-width="8"/>
  <path d="m710.77 347.14c0-29.554 24.987-53.512 55.811-53.512 14.802 0 28.998 5.6378 39.464 15.673 10.467 10.035 16.347 23.646 16.347 37.839 0 29.554-24.987 53.512-55.811 53.512s-55.811-23.958-55.811-53.512z" fill="#ffca99"/>
  <path d="m710.77 347.14c0-29.554 24.987-53.512 55.811-53.512 14.802 0 28.998 5.6378 39.464 15.673 10.467 10.035 16.347 23.646 16.347 37.839 0 29.554-24.987 53.512-55.811 53.512s-55.811-23.958-55.811-53.512z" stroke="#fff" stroke-linecap="butt" stroke-linejoin="round" stroke-width="8"/>
  <path d="m822.39 347.14c0-29.554 24.987-53.512 55.811-53.512 14.802 0 28.998 5.6378 39.464 15.673 10.467 10.035 16.347 23.646 16.347 37.839 0 29.554-24.987 53.512-55.811 53.512s-55.811-23.958-55.811-53.512z" fill="#ffca99"/>
  <path d="m822.39 347.14c0-29.554 24.987-53.512 55.811-53.512 14.802 0 28.998 5.6378 39.464 15.673 10.467 10.035 16.347 23.646 16.347 37.839 0 29.554-24.987 53.512-55.811 53.512s-55.811-23.958-55.811-53.512z" stroke="#fff" stroke-linecap="butt" stroke-linejoin="round" stroke-width="8"/>
  <path d="m599.15 347.14c0-29.554 24.987-53.512 55.811-53.512 14.802 0 28.998 5.6378 39.464 15.673 10.467 10.035 16.347 23.646 16.347 37.839 0 29.554-24.987 53.512-55.811 53.512s-55.811-23.958-55.811-53.512z" fill="#ffca99"/>
  <path d="m599.15 347.14c0-29.554 24.987-53.512 55.811-53.512 14.802 0 28.998 5.6378 39.464 15.673 10.467 10.035 16.347 23.646 16.347 37.839 0 29.554-24.987 53.512-55.811 53.512s-55.811-23.958-55.811-53.512z" stroke="#fff" stroke-linecap="butt" stroke-linejoin="round" stroke-width="8"/>
  <path d="m-18.455 294.95c0-29.554 24.987-53.512 55.811-53.512 14.802 0 28.998 5.6378 39.464 15.673 10.467 10.035 16.347 23.646 16.347 37.839 0 29.554-24.987 53.512-55.811 53.512s-55.811-23.958-55.811-53.512z" fill="#ffc585"/>
  <path d="m-18.455 294.95c0-29.554 24.987-53.512 55.811-53.512 14.802 0 28.998 5.6378 39.464 15.673 10.467 10.035 16.347 23.646 16.347 37.839 0 29.554-24.987 53.512-55.811 53.512s-55.811-23.958-55.811-53.512z" stroke="#fff" stroke-linecap="butt" stroke-linejoin="round" stroke-width="8"/>
  <path d="m93.167 294.95c0-29.554 24.987-53.512 55.811-53.512 14.802 0 28.998 5.6378 39.464 15.673 10.467 10.035 16.347 23.646 16.347 37.839 0 29.554-24.987 53.512-55.811 53.512s-55.811-23.958-55.811-53.512z" fill="#ffc585"/>
  <path d="m93.167 294.95c0-29.554 24.987-53.512 55.811-53.512 14.802 0 28.998 5.6378 39.464 15.673 10.467 10.035 16.347 23.646 16.347 37.839 0 29.554-24.987 53.512-55.811 53.512s-55.811-23.958-55.811-53.512z" stroke="#fff" stroke-linecap="butt" stroke-linejoin="round" stroke-width="8"/>
  <path d="m204.79 294.95c0-29.554 24.987-53.512 55.811-53.512 14.802 0 28.998 5.6378 39.464 15.673 10.467 10.035 16.347 23.646 16.347 37.839 0 29.554-24.987 53.512-55.811 53.512s-55.811-23.958-55.811-53.512z" fill="#ffc585"/>
  <path d="m204.79 294.95c0-29.554 24.987-53.512 55.811-53.512 14.802 0 28.998 5.6378 39.464 15.673 10.467 10.035 16.347 23.646 16.347 37.839 0 29.554-24.987 53.512-55.811 53.512s-55.811-23.958-55.811-53.512z" stroke="#fff" stroke-linecap="butt" stroke-linejoin="round" stroke-width="8"/>
  <path d="m316.41 289.93c0-29.554 24.987-53.512 55.811-53.512 14.802 0 28.998 5.6378 39.464 15.673 10.467 10.035 16.347 23.646 16.347 37.839 0 29.554-24.987 53.512-55.811 53.512s-55.811-23.958-55.811-53.512z" fill="#ffc585"/>
  <path d="m316.41 289.93c0-29.554 24.987-53.512 55.811-53.512 14.802 0 28.998 5.6378 39.464 15.673 10.467 10.035 16.347 23.646 16.347 37.839 0 29.554-24.987 53.512-55.811 53.512s-55.811-23.958-55.811-53.512z" stroke="#fff" stroke-linecap="butt" stroke-linejoin="round" stroke-width="8"/>
  <path d="m428.03 289.93c0-29.554 24.987-53.512 55.811-53.512 14.802 0 28.998 5.6378 39.464 15.673 10.467 10.035 16.347 23.646 16.347 37.839 0 29.554-24.987 53.512-55.811 53.512s-55.811-23.958-55.811-53.512z" fill="#ffc585"/>
  <path d="m428.03 289.93c0-29.554 24.987-53.512 55.811-53.512 14.802 0 28.998 5.6378 39.464 15.673 10.467 10.035 16.347 23.646 16.347 37.839 0 29.554-24.987 53.512-55.811 53.512s-55.811-23.958-55.811-53.512z" stroke="#fff" stroke-linecap="butt" stroke-linejoin="round" stroke-width="8"/>
  <path d="m539.65 289.93c0-29.554 24.987-53.512 55.811-53.512 14.802 0 28.998 5.6378 39.464 15.673 10.467 10.035 16.347 23.646 16.347 37.839 0 29.554-24.987 53.512-55.811 53.512s-55.811-23.958-55.811-53.512z" fill="#ffc585"/>
  <path d="m539.65 289.93c0-29.554 24.987-53.512 55.811-53.512 14.802 0 28.998 5.6378 39.464 15.673 10.467 10.035 16.347 23.646 16.347 37.839 0 29.554-24.987 53.512-55.811 53.512s-55.811-23.958-55.811-53.512z" stroke="#fff" stroke-linecap="butt" stroke-linejoin="round" stroke-width="8"/>
  <path d="m762.9 289.93c0-29.554 24.987-53.512 55.811-53.512 14.802 0 28.998 5.6378 39.464 15.673 10.467 10.035 16.347 23.646 16.347 37.839 0 29.554-24.987 53.512-55.811 53.512s-55.811-23.958-55.811-53.512z" fill="#ffc585"/>
  <path d="m762.9 289.93c0-29.554 24.987-53.512 55.811-53.512 14.802 0 28.998 5.6378 39.464 15.673 10.467 10.035 16.347 23.646 16.347 37.839 0 29.554-24.987 53.512-55.811 53.512s-55.811-23.958-55.811-53.512z" stroke="#fff" stroke-linecap="butt" stroke-linejoin="round" stroke-width="8"/>
  <path d="m874.52 289.93c0-29.554 24.987-53.512 55.811-53.512 14.802 0 28.998 5.6378 39.464 15.673 10.467 10.035 16.347 23.646 16.347 37.839 0 29.554-24.987 53.512-55.811 53.512s-55.811-23.958-55.811-53.512z" fill="#ffc585"/>
  <path d="m874.52 289.93c0-29.554 24.987-53.512 55.811-53.512 14.802 0 28.998 5.6378 39.464 15.673 10.467 10.035 16.347 23.646 16.347 37.839 0 29.554-24.987 53.512-55.811 53.512s-55.811-23.958-55.811-53.512z" stroke="#fff" stroke-linecap="butt" stroke-linejoin="round" stroke-width="8"/>
  <path d="m651.28 289.93c0-29.554 24.987-53.512 55.811-53.512 14.802 0 28.998 5.6378 39.464 15.673 10.467 10.035 16.347 23.646 16.347 37.839 0 29.554-24.987 53.512-55.811 53.512s-55.811-23.958-55.811-53.512z" fill="#ffc585"/>
  <path d="m651.28 289.93c0-29.554 24.987-53.512 55.811-53.512 14.802 0 28.998 5.6378 39.464 15.673 10.467 10.035 16.347 23.646 16.347 37.839 0 29.554-24.987 53.512-55.811 53.512s-55.811-23.958-55.811-53.512z" stroke="#fff" stroke-linecap="butt" stroke-linejoin="round" stroke-width="8"/>
  <path d="m-74.009 238.95c0-29.554 24.987-53.512 55.811-53.512 14.802 0 28.998 5.6378 39.464 15.673 10.467 10.035 16.347 23.646 16.347 37.839 0 29.554-24.987 53.512-55.811 53.512s-55.811-23.958-55.811-53.512z" fill="#ffbc71"/>
  <path d="m-74.009 238.95c0-29.554 24.987-53.512 55.811-53.512 14.802 0 28.998 5.6378 39.464 15.673 10.467 10.035 16.347 23.646 16.347 37.839 0 29.554-24.987 53.512-55.811 53.512s-55.811-23.958-55.811-53.512z" stroke="#fff" stroke-linecap="butt" stroke-linejoin="round" stroke-width="8"/>
  <path d="m37.613 238.95c0-29.554 24.987-53.512 55.811-53.512 14.802 0 28.998 5.6378 39.464 15.673 10.467 10.035 16.347 23.646 16.347 37.839 0 29.554-24.987 53.512-55.811 53.512s-55.811-23.958-55.811-53.512z" fill="#ffbc71"/>
  <path d="m37.613 238.95c0-29.554 24.987-53.512 55.811-53.512 14.802 0 28.998 5.6378 39.464 15.673 10.467 10.035 16.347 23.646 16.347 37.839 0 29.554-24.987 53.512-55.811 53.512s-55.811-23.958-55.811-53.512z" stroke="#fff" stroke-linecap="butt" stroke-linejoin="round" stroke-width="8"/>
  <path d="m149.23 238.95c0-29.554 24.987-53.512 55.811-53.512 14.802 0 28.998 5.6378 39.464 15.673 10.467 10.035 16.347 23.646 16.347 37.839 0 29.554-24.987 53.512-55.811 53.512s-55.811-23.958-55.811-53.512z" fill="#ffbc71"/>
  <path d="m149.23 238.95c0-29.554 24.987-53.512 55.811-53.512 14.802 0 28.998 5.6378 39.464 15.673 10.467 10.035 16.347 23.646 16.347 37.839 0 29.554-24.987 53.512-55.811 53.512s-55.811-23.958-55.811-53.512z" stroke="#fff" stroke-linecap="butt" stroke-linejoin="round" stroke-width="8"/>
  <path d="m260.86 233.93c0-29.554 24.987-53.512 55.811-53.512 14.802 0 28.998 5.6378 39.464 15.673 10.467 10.035 16.347 23.646 16.347 37.839 0 29.554-24.987 53.512-55.811 53.512s-55.811-23.958-55.811-53.512z" fill="#ffbc71"/>
  <path d="m260.86 233.93c0-29.554 24.987-53.512 55.811-53.512 14.802 0 28.998 5.6378 39.464 15.673 10.467 10.035 16.347 23.646 16.347 37.839 0 29.554-24.987 53.512-55.811 53.512s-55.811-23.958-55.811-53.512z" stroke="#fff" stroke-linecap="butt" stroke-linejoin="round" stroke-width="8"/>
  <path d="m372.48 233.93c0-29.554 24.987-53.512 55.811-53.512 14.802 0 28.998 5.6378 39.464 15.673 10.467 10.035 16.347 23.646 16.347 37.839 0 29.554-24.987 53.512-55.811 53.512s-55.811-23.958-55.811-53.512z" fill="#ffbc71"/>
  <path d="m372.48 233.93c0-29.554 24.987-53.512 55.811-53.512 14.802 0 28.998 5.6378 39.464 15.673 10.467 10.035 16.347 23.646 16.347 37.839 0 29.554-24.987 53.512-55.811 53.512s-55.811-23.958-55.811-53.512z" stroke="#fff" stroke-linecap="butt" stroke-linejoin="round" stroke-width="8"/>
  <path d="m484.1 233.93c0-29.554 24.987-53.512 55.811-53.512 14.802 0 28.998 5.6378 39.464 15.673 10.467 10.035 16.347 23.646 16.347 37.839 0 29.554-24.987 53.512-55.811 53.512s-55.811-23.958-55.811-53.512z" fill="#ffbc71"/>
  <path d="m484.1 233.93c0-29.554 24.987-53.512 55.811-53.512 14.802 0 28.998 5.6378 39.464 15.673 10.467 10.035 16.347 23.646 16.347 37.839 0 29.554-24.987 53.512-55.811 53.512s-55.811-23.958-55.811-53.512z" stroke="#fff" stroke-linecap="butt" stroke-linejoin="round" stroke-width="8"/>
  <path d="m707.35 233.93c0-29.554 24.987-53.512 55.811-53.512 14.802 0 28.998 5.6378 39.464 15.673 10.467 10.035 16.347 23.646 16.347 37.839 0 29.554-24.987 53.512-55.811 53.512s-55.811-23.958-55.811-53.512z" fill="#ffbc71"/>
  <path d="m707.35 233.93c0-29.554 24.987-53.512 55.811-53.512 14.802 0 28.998 5.6378 39.464 15.673 10.467 10.035 16.347 23.646 16.347 37.839 0 29.554-24.987 53.512-55.811 53.512s-55.811-23.958-55.811-53.512z" stroke="#fff" stroke-linecap="butt" stroke-linejoin="round" stroke-width="8"/>
  <path d="m818.97 233.93c0-29.554 24.987-53.512 55.811-53.512 14.802 0 28.998 5.6378 39.464 15.673 10.467 10.035 16.347 23.646 16.347 37.839 0 29.554-24.987 53.512-55.811 53.512s-55.811-23.958-55.811-53.512z" fill="#ffbc71"/>
  <path d="m818.97 233.93c0-29.554 24.987-53.512 55.811-53.512 14.802 0 28.998 5.6378 39.464 15.673 10.467 10.035 16.347 23.646 16.347 37.839 0 29.554-24.987 53.512-55.811 53.512s-55.811-23.958-55.811-53.512z" stroke="#fff" stroke-linecap="butt" stroke-linejoin="round" stroke-width="8"/>
  <path d="m595.72 233.93c0-29.554 24.987-53.512 55.811-53.512 14.802 0 28.998 5.6378 39.464 15.673 10.467 10.035 16.347 23.646 16.347 37.839 0 29.554-24.987 53.512-55.811 53.512s-55.811-23.958-55.811-53.512z" fill="#ffbc71"/>
  <path d="m595.72 233.93c0-29.554 24.987-53.512 55.811-53.512 14.802 0 28.998 5.6378 39.464 15.673 10.467 10.035 16.347 23.646 16.347 37.839 0 29.554-24.987 53.512-55.811 53.512s-55.811-23.958-55.811-53.512z" stroke="#fff" stroke-linecap="butt" stroke-linejoin="round" stroke-width="8"/>
  <path d="m-16.308 186.79c0-29.554 24.987-53.512 55.811-53.512 14.802 0 28.998 5.6378 39.464 15.673 10.467 10.035 16.347 23.646 16.347 37.839 0 29.554-24.987 53.512-55.811 53.512s-55.811-23.958-55.811-53.512z" fill="#ffb25c"/>
  <path d="m-16.308 186.79c0-29.554 24.987-53.512 55.811-53.512 14.802 0 28.998 5.6378 39.464 15.673 10.467 10.035 16.347 23.646 16.347 37.839 0 29.554-24.987 53.512-55.811 53.512s-55.811-23.958-55.811-53.512z" stroke="#fff" stroke-linecap="butt" stroke-linejoin="round" stroke-width="8"/>
  <path d="m95.314 186.79c0-29.554 24.987-53.512 55.811-53.512 14.802 0 28.998 5.6378 39.464 15.673 10.467 10.035 16.347 23.646 16.347 37.839 0 29.554-24.987 53.512-55.811 53.512s-55.811-23.958-55.811-53.512z" fill="#ffb25c"/>
  <path d="m95.314 186.79c0-29.554 24.987-53.512 55.811-53.512 14.802 0 28.998 5.6378 39.464 15.673 10.467 10.035 16.347 23.646 16.347 37.839 0 29.554-24.987 53.512-55.811 53.512s-55.811-23.958-55.811-53.512z" stroke="#fff" stroke-linecap="butt" stroke-linejoin="round" stroke-width="8"/>
  <path d="m206.94 186.79c0-29.554 24.987-53.512 55.811-53.512 14.802 0 28.998 5.6378 39.464 15.673 10.467 10.035 16.347 23.646 16.347 37.839 0 29.554-24.987 53.512-55.811 53.512s-55.811-23.958-55.811-53.512z" fill="#ffb25c"/>
  <path d="m206.94 186.79c0-29.554 24.987-53.512 55.811-53.512 14.802 0 28.998 5.6378 39.464 15.673 10.467 10.035 16.347 23.646 16.347 37.839 0 29.554-24.987 53.512-55.811 53.512s-55.811-23.958-55.811-53.512z" stroke="#fff" stroke-linecap="butt" stroke-linejoin="round" stroke-width="8"/>
  <path d="m318.56 181.77c0-29.554 24.987-53.512 55.811-53.512 14.802 0 28.998 5.6378 39.464 15.673 10.467 10.035 16.347 23.646 16.347 37.839 0 29.554-24.987 53.512-55.811 53.512s-55.811-23.958-55.811-53.512z" fill="#ffb25c"/>
  <path d="m318.56 181.77c0-29.554 24.987-53.512 55.811-53.512 14.802 0 28.998 5.6378 39.464 15.673 10.467 10.035 16.347 23.646 16.347 37.839 0 29.554-24.987 53.512-55.811 53.512s-55.811-23.958-55.811-53.512z" stroke="#fff" stroke-linecap="butt" stroke-linejoin="round" stroke-width="8"/>
  <path d="m430.18 181.77c0-29.554 24.987-53.512 55.811-53.512 14.802 0 28.998 5.6378 39.464 15.673 10.467 10.035 16.347 23.646 16.347 37.839 0 29.554-24.987 53.512-55.811 53.512s-55.811-23.958-55.811-53.512z" fill="#ffb25c"/>
  <path d="m430.18 181.77c0-29.554 24.987-53.512 55.811-53.512 14.802 0 28.998 5.6378 39.464 15.673 10.467 10.035 16.347 23.646 16.347 37.839 0 29.554-24.987 53.512-55.811 53.512s-55.811-23.958-55.811-53.512z" stroke="#fff" stroke-linecap="butt" stroke-linejoin="round" stroke-width="8"/>
  <path d="m541.8 181.77c0-29.554 24.987-53.512 55.811-53.512 14.802 0 28.998 5.6378 39.464 15.673 10.467 10.035 16.347 23.646 16.347 37.839 0 29.554-24.987 53.512-55.811 53.512s-55.811-23.958-55.811-53.512z" fill="#ffb25c"/>
  <path d="m541.8 181.77c0-29.554 24.987-53.512 55.811-53.512 14.802 0 28.998 5.6378 39.464 15.673 10.467 10.035 16.347 23.646 16.347 37.839 0 29.554-24.987 53.512-55.811 53.512s-55.811-23.958-55.811-53.512z" stroke="#fff" stroke-linecap="butt" stroke-linejoin="round" stroke-width="8"/>
  <path d="m765.05 181.77c0-29.554 24.987-53.512 55.811-53.512 14.802 0 28.998 5.6378 39.464 15.673 10.467 10.035 16.347 23.646 16.347 37.839 0 29.554-24.987 53.512-55.811 53.512s-55.811-23.958-55.811-53.512z" fill="#ffb25c"/>
  <path d="m765.05 181.77c0-29.554 24.987-53.512 55.811-53.512 14.802 0 28.998 5.6378 39.464 15.673 10.467 10.035 16.347 23.646 16.347 37.839 0 29.554-24.987 53.512-55.811 53.512s-55.811-23.958-55.811-53.512z" stroke="#fff" stroke-linecap="butt" stroke-linejoin="round" stroke-width="8"/>
  <path d="m876.67 181.77c0-29.554 24.987-53.512 55.811-53.512 14.802 0 28.998 5.6378 39.464 15.673 10.467 10.035 16.347 23.646 16.347 37.839 0 29.554-24.987 53.512-55.811 53.512s-55.811-23.958-55.811-53.512z" fill="#ffb25c"/>
  <path d="m876.67 181.77c0-29.554 24.987-53.512 55.811-53.512 14.802 0 28.998 5.6378 39.464 15.673 10.467 10.035 16.347 23.646 16.347 37.839 0 29.554-24.987 53.512-55.811 53.512s-55.811-23.958-55.811-53.512z" stroke="#fff" stroke-linecap="butt" stroke-linejoin="round" stroke-width="8"/>
  <path d="m653.42 181.77c0-29.554 24.987-53.512 55.811-53.512 14.802 0 28.998 5.6378 39.464 15.673 10.467 10.035 16.347 23.646 16.347 37.839 0 29.554-24.987 53.512-55.811 53.512s-55.811-23.958-55.811-53.512z" fill="#ffb25c"/>
  <path d="m653.42 181.77c0-29.554 24.987-53.512 55.811-53.512 14.802 0 28.998 5.6378 39.464 15.673 10.467 10.035 16.347 23.646 16.347 37.839 0 29.554-24.987 53.512-55.811 53.512s-55.811-23.958-55.811-53.512z" stroke="#fff" stroke-linecap="butt" stroke-linejoin="round" stroke-width="8"/>
  <path d="m-75.865 129.39c0-29.554 24.987-53.512 55.811-53.512 14.802 0 28.998 5.6378 39.464 15.673 10.467 10.035 16.347 23.646 16.347 37.839 0 29.554-24.987 53.512-55.811 53.512s-55.811-23.958-55.811-53.512z" fill="#ffa540"/>
  <path d="m-75.865 129.39c0-29.554 24.987-53.512 55.811-53.512 14.802 0 28.998 5.6378 39.464 15.673 10.467 10.035 16.347 23.646 16.347 37.839 0 29.554-24.987 53.512-55.811 53.512s-55.811-23.958-55.811-53.512z" stroke="#fff" stroke-linecap="butt" stroke-linejoin="round" stroke-width="8"/>
  <path d="m35.757 129.39c0-29.554 24.987-53.512 55.811-53.512 14.802 0 28.998 5.6378 39.464 15.673 10.467 10.035 16.347 23.646 16.347 37.839 0 29.554-24.987 53.512-55.811 53.512s-55.811-23.958-55.811-53.512z" fill="#ffa540"/>
  <path d="m35.757 129.39c0-29.554 24.987-53.512 55.811-53.512 14.802 0 28.998 5.6378 39.464 15.673 10.467 10.035 16.347 23.646 16.347 37.839 0 29.554-24.987 53.512-55.811 53.512s-55.811-23.958-55.811-53.512z" stroke="#fff" stroke-linecap="butt" stroke-linejoin="round" stroke-width="8"/>
  <path d="m147.38 129.39c0-29.554 24.987-53.512 55.811-53.512 14.802 0 28.998 5.6378 39.464 15.673 10.467 10.035 16.347 23.646 16.347 37.839 0 29.554-24.987 53.512-55.811 53.512s-55.811-23.958-55.811-53.512z" fill="#ffa540"/>
  <path d="m147.38 129.39c0-29.554 24.987-53.512 55.811-53.512 14.802 0 28.998 5.6378 39.464 15.673 10.467 10.035 16.347 23.646 16.347 37.839 0 29.554-24.987 53.512-55.811 53.512s-55.811-23.958-55.811-53.512z" stroke="#fff" stroke-linecap="butt" stroke-linejoin="round" stroke-width="8"/>
  <path d="m259 124.37c0-29.554 24.987-53.512 55.811-53.512 14.802 0 28.998 5.6378 39.464 15.673 10.467 10.035 16.347 23.646 16.347 37.839 0 29.554-24.987 53.512-55.811 53.512s-55.811-23.958-55.811-53.512z" fill="#ffa540"/>
  <path d="m259 124.37c0-29.554 24.987-53.512 55.811-53.512 14.802 0 28.998 5.6378 39.464 15.673 10.467 10.035 16.347 23.646 16.347 37.839 0 29.554-24.987 53.512-55.811 53.512s-55.811-23.958-55.811-53.512z" stroke="#fff" stroke-linecap="butt" stroke-linejoin="round" stroke-width="8"/>
  <path d="m370.62 124.37c0-29.554 24.987-53.512 55.811-53.512 14.802 0 28.998 5.6378 39.464 15.673 10.467 10.035 16.347 23.646 16.347 37.839 0 29.554-24.987 53.512-55.811 53.512s-55.811-23.958-55.811-53.512z" fill="#ffa540"/>
  <path d="m370.62 124.37c0-29.554 24.987-53.512 55.811-53.512 14.802 0 28.998 5.6378 39.464 15.673 10.467 10.035 16.347 23.646 16.347 37.839 0 29.554-24.987 53.512-55.811 53.512s-55.811-23.958-55.811-53.512z" stroke="#fff" stroke-linecap="butt" stroke-linejoin="round" stroke-width="8"/>
  <path d="m482.25 124.37c0-29.554 24.987-53.512 55.811-53.512 14.802 0 28.998 5.6378 39.464 15.673 10.467 10.035 16.347 23.646 16.347 37.839 0 29.554-24.987 53.512-55.811 53.512s-55.811-23.958-55.811-53.512z" fill="#ffa540"/>
  <path d="m482.25 124.37c0-29.554 24.987-53.512 55.811-53.512 14.802 0 28.998 5.6378 39.464 15.673 10.467 10.035 16.347 23.646 16.347 37.839 0 29.554-24.987 53.512-55.811 53.512s-55.811-23.958-55.811-53.512z" stroke="#fff" stroke-linecap="butt" stroke-linejoin="round" stroke-width="8"/>
  <path d="m705.49 124.37c0-29.554 24.987-53.512 55.811-53.512 14.802 0 28.998 5.6378 39.464 15.673 10.467 10.035 16.347 23.646 16.347 37.839 0 29.554-24.987 53.512-55.811 53.512s-55.811-23.958-55.811-53.512z" fill="#ffa540"/>
  <path d="m705.49 124.37c0-29.554 24.987-53.512 55.811-53.512 14.802 0 28.998 5.6378 39.464 15.673 10.467 10.035 16.347 23.646 16.347 37.839 0 29.554-24.987 53.512-55.811 53.512s-55.811-23.958-55.811-53.512z" stroke="#fff" stroke-linecap="butt" stroke-linejoin="round" stroke-width="8"/>
  <path d="m817.11 124.37c0-29.554 24.987-53.512 55.811-53.512 14.802 0 28.998 5.6378 39.464 15.673 10.467 10.035 16.347 23.646 16.347 37.839 0 29.554-24.987 53.512-55.811 53.512s-55.811-23.958-55.811-53.512z" fill="#ffa540"/>
  <path d="m817.11 124.37c0-29.554 24.987-53.512 55.811-53.512 14.802 0 28.998 5.6378 39.464 15.673 10.467 10.035 16.347 23.646 16.347 37.839 0 29.554-24.987 53.512-55.811 53.512s-55.811-23.958-55.811-53.512z" stroke="#fff" stroke-linecap="butt" stroke-linejoin="round" stroke-width="8"/>
  <path d="m593.87 124.37c0-29.554 24.987-53.512 55.811-53.512 14.802 0 28.998 5.6378 39.464 15.673 10.467 10.035 16.347 23.646 16.347 37.839 0 29.554-24.987 53.512-55.811 53.512s-55.811-23.958-55.811-53.512z" fill="#ffa540"/>
  <path d="m593.87 124.37c0-29.554 24.987-53.512 55.811-53.512 14.802 0 28.998 5.6378 39.464 15.673 10.467 10.035 16.347 23.646 16.347 37.839 0 29.554-24.987 53.512-55.811 53.512s-55.811-23.958-55.811-53.512z" stroke="#fff" stroke-linecap="butt" stroke-linejoin="round" stroke-width="8"/>
  <path d="m-24.503 70.623c0-29.554 24.987-53.512 55.811-53.512 14.802 0 28.998 5.6378 39.464 15.673 10.467 10.035 16.347 23.646 16.347 37.839 0 29.554-24.987 53.512-55.811 53.512s-55.811-23.958-55.811-53.512z" fill="#ffa01f"/>
  <path d="m-24.503 70.623c0-29.554 24.987-53.512 55.811-53.512 14.802 0 28.998 5.6378 39.464 15.673 10.467 10.035 16.347 23.646 16.347 37.839 0 29.554-24.987 53.512-55.811 53.512s-55.811-23.958-55.811-53.512z" stroke="#fff" stroke-linecap="butt" stroke-linejoin="round" stroke-width="8"/>
  <path d="m87.119 70.623c0-29.554 24.987-53.512 55.811-53.512 14.802 0 28.998 5.6378 39.464 15.673 10.467 10.035 16.347 23.646 16.347 37.839 0 29.554-24.987 53.512-55.811 53.512s-55.811-23.958-55.811-53.512z" fill="#ffa01f"/>
  <path d="m87.119 70.623c0-29.554 24.987-53.512 55.811-53.512 14.802 0 28.998 5.6378 39.464 15.673 10.467 10.035 16.347 23.646 16.347 37.839 0 29.554-24.987 53.512-55.811 53.512s-55.811-23.958-55.811-53.512z" stroke="#fff" stroke-linecap="butt" stroke-linejoin="round" stroke-width="8"/>
  <path d="m198.74 70.623c0-29.554 24.987-53.512 55.811-53.512 14.802 0 28.998 5.6378 39.464 15.673 10.467 10.035 16.347 23.646 16.347 37.839 0 29.554-24.987 53.512-55.811 53.512s-55.811-23.958-55.811-53.512z" fill="#ffa01f"/>
  <path d="m198.74 70.623c0-29.554 24.987-53.512 55.811-53.512 14.802 0 28.998 5.6378 39.464 15.673 10.467 10.035 16.347 23.646 16.347 37.839 0 29.554-24.987 53.512-55.811 53.512s-55.811-23.958-55.811-53.512z" stroke="#fff" stroke-linecap="butt" stroke-linejoin="round" stroke-width="8"/>
  <path d="m310.36 65.602c0-29.554 24.987-53.512 55.811-53.512 14.802 0 28.998 5.6378 39.464 15.673 10.467 10.035 16.347 23.646 16.347 37.839 0 29.554-24.987 53.512-55.811 53.512s-55.811-23.958-55.811-53.512z" fill="#ffa01f"/>
  <path d="m310.36 65.602c0-29.554 24.987-53.512 55.811-53.512 14.802 0 28.998 5.6378 39.464 15.673 10.467 10.035 16.347 23.646 16.347 37.839 0 29.554-24.987 53.512-55.811 53.512s-55.811-23.958-55.811-53.512z" stroke="#fff" stroke-linecap="butt" stroke-linejoin="round" stroke-width="8"/>
  <path d="m421.99 65.602c0-29.554 24.987-53.512 55.811-53.512 14.802 0 28.998 5.6378 39.464 15.673 10.467 10.035 16.347 23.646 16.347 37.839 0 29.554-24.987 53.512-55.811 53.512s-55.811-23.958-55.811-53.512z" fill="#ffa01f"/>
  <path d="m421.99 65.602c0-29.554 24.987-53.512 55.811-53.512 14.802 0 28.998 5.6378 39.464 15.673 10.467 10.035 16.347 23.646 16.347 37.839 0 29.554-24.987 53.512-55.811 53.512s-55.811-23.958-55.811-53.512z" stroke="#fff" stroke-linecap="butt" stroke-linejoin="round" stroke-width="8"/>
  <path d="m533.61 65.602c0-29.554 24.987-53.512 55.811-53.512 14.802 0 28.998 5.6378 39.464 15.673 10.467 10.035 16.347 23.646 16.347 37.839 0 29.554-24.987 53.512-55.811 53.512s-55.811-23.958-55.811-53.512z" fill="#ffa01f"/>
  <path d="m533.61 65.602c0-29.554 24.987-53.512 55.811-53.512 14.802 0 28.998 5.6378 39.464 15.673 10.467 10.035 16.347 23.646 16.347 37.839 0 29.554-24.987 53.512-55.811 53.512s-55.811-23.958-55.811-53.512z" stroke="#fff" stroke-linecap="butt" stroke-linejoin="round" stroke-width="8"/>
  <path d="m756.85 65.602c0-29.554 24.987-53.512 55.811-53.512 14.802 0 28.998 5.6378 39.464 15.673 10.467 10.035 16.347 23.646 16.347 37.839 0 29.554-24.987 53.512-55.811 53.512s-55.811-23.958-55.811-53.512z" fill="#ffa01f"/>
  <path d="m756.85 65.602c0-29.554 24.987-53.512 55.811-53.512 14.802 0 28.998 5.6378 39.464 15.673 10.467 10.035 16.347 23.646 16.347 37.839 0 29.554-24.987 53.512-55.811 53.512s-55.811-23.958-55.811-53.512z" stroke="#fff" stroke-linecap="butt" stroke-linejoin="round" stroke-width="8"/>
  <path d="m868.47 65.602c0-29.554 24.987-53.512 55.811-53.512 14.802 0 28.998 5.6378 39.464 15.673 10.467 10.035 16.347 23.646 16.347 37.839 0 29.554-24.987 53.512-55.811 53.512s-55.811-23.958-55.811-53.512z" fill="#ffa01f"/>
  <path d="m868.47 65.602c0-29.554 24.987-53.512 55.811-53.512 14.802 0 28.998 5.6378 39.464 15.673 10.467 10.035 16.347 23.646 16.347 37.839 0 29.554-24.987 53.512-55.811 53.512s-55.811-23.958-55.811-53.512z" stroke="#fff" stroke-linecap="butt" stroke-linejoin="round" stroke-width="8"/>
  <path d="m645.23 65.602c0-29.554 24.987-53.512 55.811-53.512 14.802 0 28.998 5.6378 39.464 15.673 10.467 10.035 16.347 23.646 16.347 37.839 0 29.554-24.987 53.512-55.811 53.512s-55.811-23.958-55.811-53.512z" fill="#ffa01f"/>
  <path d="m645.23 65.602c0-29.554 24.987-53.512 55.811-53.512 14.802 0 28.998 5.6378 39.464 15.673 10.467 10.035 16.347 23.646 16.347 37.839 0 29.554-24.987 53.512-55.811 53.512s-55.811-23.958-55.811-53.512z" stroke="#fff" stroke-linecap="butt" stroke-linejoin="round" stroke-width="8"/>
  <path d="m-82.248 22.369c0-29.554 24.987-53.512 55.811-53.512 14.802 0 28.998 5.6378 39.464 15.673 10.467 10.035 16.347 23.646 16.347 37.839 0 29.554-24.987 53.512-55.811 53.512s-55.811-23.958-55.811-53.512z" fill="#f90"/>
  <path d="m-82.248 22.369c0-29.554 24.987-53.512 55.811-53.512 14.802 0 28.998 5.6378 39.464 15.673 10.467 10.035 16.347 23.646 16.347 37.839 0 29.554-24.987 53.512-55.811 53.512s-55.811-23.958-55.811-53.512z" stroke="#fff" stroke-linecap="butt" stroke-linejoin="round" stroke-width="8"/>
  <path d="m29.374 22.369c0-29.554 24.987-53.512 55.811-53.512 14.802 0 28.998 5.6378 39.464 15.673 10.467 10.035 16.347 23.646 16.347 37.839 0 29.554-24.987 53.512-55.811 53.512s-55.811-23.958-55.811-53.512z" fill="#f90"/>
  <path d="m29.374 22.369c0-29.554 24.987-53.512 55.811-53.512 14.802 0 28.998 5.6378 39.464 15.673 10.467 10.035 16.347 23.646 16.347 37.839 0 29.554-24.987 53.512-55.811 53.512s-55.811-23.958-55.811-53.512z" stroke="#fff" stroke-linecap="butt" stroke-linejoin="round" stroke-width="8"/>
  <path d="m141 22.369c0-29.554 24.987-53.512 55.811-53.512 14.802 0 28.998 5.6378 39.464 15.673 10.467 10.035 16.347 23.646 16.347 37.839 0 29.554-24.987 53.512-55.811 53.512s-55.811-23.958-55.811-53.512z" fill="#f90"/>
  <path d="m141 22.369c0-29.554 24.987-53.512 55.811-53.512 14.802 0 28.998 5.6378 39.464 15.673 10.467 10.035 16.347 23.646 16.347 37.839 0 29.554-24.987 53.512-55.811 53.512s-55.811-23.958-55.811-53.512z" stroke="#fff" stroke-linecap="butt" stroke-linejoin="round" stroke-width="8"/>
  <path d="m252.62 17.348c0-29.554 24.987-53.512 55.811-53.512 14.802 0 28.998 5.6378 39.464 15.673 10.467 10.035 16.347 23.646 16.347 37.839 0 29.554-24.987 53.512-55.811 53.512s-55.811-23.958-55.811-53.512z" fill="#f90"/>
  <path d="m252.62 17.348c0-29.554 24.987-53.512 55.811-53.512 14.802 0 28.998 5.6378 39.464 15.673 10.467 10.035 16.347 23.646 16.347 37.839 0 29.554-24.987 53.512-55.811 53.512s-55.811-23.958-55.811-53.512z" stroke="#fff" stroke-linecap="butt" stroke-linejoin="round" stroke-width="8"/>
  <path d="m364.24 17.348c0-29.554 24.987-53.512 55.811-53.512 14.802 0 28.998 5.6378 39.464 15.673 10.467 10.035 16.347 23.646 16.347 37.839 0 29.554-24.987 53.512-55.811 53.512s-55.811-23.958-55.811-53.512z" fill="#f90"/>
  <path d="m364.24 17.348c0-29.554 24.987-53.512 55.811-53.512 14.802 0 28.998 5.6378 39.464 15.673 10.467 10.035 16.347 23.646 16.347 37.839 0 29.554-24.987 53.512-55.811 53.512s-55.811-23.958-55.811-53.512z" stroke="#fff" stroke-linecap="butt" stroke-linejoin="round" stroke-width="8"/>
  <path d="m475.86 17.348c0-29.554 24.987-53.512 55.811-53.512 14.802 0 28.998 5.6378 39.464 15.673 10.467 10.035 16.347 23.646 16.347 37.839 0 29.554-24.987 53.512-55.811 53.512s-55.811-23.958-55.811-53.512z" fill="#f90"/>
  <path d="m475.86 17.348c0-29.554 24.987-53.512 55.811-53.512 14.802 0 28.998 5.6378 39.464 15.673 10.467 10.035 16.347 23.646 16.347 37.839 0 29.554-24.987 53.512-55.811 53.512s-55.811-23.958-55.811-53.512z" stroke="#fff" stroke-linecap="butt" stroke-linejoin="round" stroke-width="8"/>
  <path d="m699.11 17.348c0-29.554 24.987-53.512 55.811-53.512 14.802 0 28.998 5.6378 39.464 15.673 10.467 10.035 16.347 23.646 16.347 37.839 0 29.554-24.987 53.512-55.811 53.512s-55.811-23.958-55.811-53.512z" fill="#f90"/>
  <path d="m699.11 17.348c0-29.554 24.987-53.512 55.811-53.512 14.802 0 28.998 5.6378 39.464 15.673 10.467 10.035 16.347 23.646 16.347 37.839 0 29.554-24.987 53.512-55.811 53.512s-55.811-23.958-55.811-53.512z" stroke="#fff" stroke-linecap="butt" stroke-linejoin="round" stroke-width="8"/>
  <path d="m810.73 17.348c0-29.554 24.987-53.512 55.811-53.512 14.802 0 28.998 5.6378 39.464 15.673 10.467 10.035 16.347 23.646 16.347 37.839 0 29.554-24.987 53.512-55.811 53.512s-55.811-23.958-55.811-53.512z" fill="#f90"/>
  <path d="m810.73 17.348c0-29.554 24.987-53.512 55.811-53.512 14.802 0 28.998 5.6378 39.464 15.673 10.467 10.035 16.347 23.646 16.347 37.839 0 29.554-24.987 53.512-55.811 53.512s-55.811-23.958-55.811-53.512z" stroke="#fff" stroke-linecap="butt" stroke-linejoin="round" stroke-width="8"/>
  <path d="m587.48 17.348c0-29.554 24.987-53.512 55.811-53.512 14.802 0 28.998 5.6378 39.464 15.673 10.467 10.035 16.347 23.646 16.347 37.839 0 29.554-24.987 53.512-55.811 53.512s-55.811-23.958-55.811-53.512z" fill="#f90"/>
  <path d="m587.48 17.348c0-29.554 24.987-53.512 55.811-53.512 14.802 0 28.998 5.6378 39.464 15.673 10.467 10.035 16.347 23.646 16.347 37.839 0 29.554-24.987 53.512-55.811 53.512s-55.811-23.958-55.811-53.512z" stroke="#fff" stroke-linecap="butt" stroke-linejoin="round" stroke-width="8"/>
 </g>
</svg>
